<svg xmlns="http://www.w3.org/2000/svg" viewBox="0 0 22 32" width="22" height="32">
	<style>
		tspan { white-space:pre }
		.shp0 { fill: #666d89 } 
	</style>
	<path id="bulb" class="shp0" d="M11 0C4.92 0 0 4.92 0 11C0 15.03 3.69 19.3 5.03 23.05C7.03 28.65 6.81 32 11 32C15.25 32 14.96 28.67 16.97 23.08C18.32 19.32 22 15 22 11C22 4.92 17.08 0 11 0ZM13.59 27.18L8.63 27.8C8.46 27.28 8.27 26.68 8.04 25.9C8.03 25.89 8.03 25.88 8.03 25.87L14.22 25.1C14.13 25.39 14.03 25.7 13.95 25.98C13.82 26.43 13.7 26.82 13.59 27.18ZM7.74 24.91C7.55 24.31 7.35 23.67 7.12 23L14.89 23C14.76 23.36 14.64 23.72 14.54 24.06L7.74 24.91ZM11 30C9.99 30 9.52 29.88 9 28.75L13.24 28.22C12.63 29.87 12.18 30 11 30ZM15.67 21L6.34 21C5.84 19.92 5.24 18.84 4.65 17.78C3.35 15.45 2 13.03 2 11C2 6.04 6.04 2 11 2C15.96 2 20 6.04 20 11C20 13.02 18.65 15.45 17.34 17.8C16.76 18.85 16.17 19.93 15.67 21ZM11 5C7.69 5 5 7.69 5 11C5 11.28 5.22 11.5 5.5 11.5C5.78 11.5 6 11.28 6 11C6 8.24 8.24 6 11 6C11.28 6 11.5 5.78 11.5 5.5C11.5 5.22 11.28 5 11 5Z" />
</svg>