<svg xmlns="http://www.w3.org/2000/svg" viewBox="0 0 22 32" width="22" height="32">
	<style>
		tspan { white-space:pre }
		.shp0 { fill: #666d89 } 
	</style>
	<path id="phone" class="shp0" d="M19 0L3 0C1.34 0 0 1.34 0 3L0 29C0 30.66 1.34 32 3 32L19 32C20.66 32 22 30.66 22 29L22 3C22 1.34 20.66 0 19 0ZM20 29C20 29.55 19.55 30 19 30L3 30C2.45 30 2 29.55 2 29L2 27L20 27L20 29ZM20 26L2 26L2 6L20 6L20 26ZM20 5L2 5L2 3C2 2.45 2.45 2 3 2L19 2C19.55 2 20 2.45 20 3L20 5ZM13 3.5C13 3.78 12.78 4 12.5 4L9.5 4C9.22 4 9 3.78 9 3.5L9 3.5C9 3.22 9.22 3 9.5 3L12.5 3C12.78 3 13 3.22 13 3.5L13 3.5ZM12 28.5C12 28.77 11.78 29 11.5 29L10.5 29C10.22 29 10 28.77 10 28.5L10 28.5C10 28.22 10.22 28 10.5 28L11.5 28C11.78 28 12 28.22 12 28.5L12 28.5Z" />
</svg>